<?xml version="1.0"?><svg width="793.701" height="1122.52" xmlns="http://www.w3.org/2000/svg">
 <title>right-arrow</title>
 <g>
  <title>Layer 1</title>
  <g id="layer1">
   <path d="m408.911011,274.132996c-19.661011,0 -39.295013,5.72699 -54.362,17.125c-30.136017,22.798004 -30.136017,59.484009 0,82.282013l154.203003,116.684998l-356.886017,0c-42.617996,0 -76.919296,25.980011 -76.919296,58.220001c0,32.23999 34.3013,58.188965 76.919296,58.188965l356.925995,0l-154.242981,116.686035c-30.136017,22.796997 -30.136017,59.484009 0,82.281006c30.134979,22.796997 78.629974,22.796997 108.764984,0l285.56601,-216.031006c30.13501,-22.796997 30.13501,-59.484009 0,-82.281006l-285.56601,-216.031006c-15.066986,-11.39801 -34.742004,-17.125 -54.402985,-17.125z" stroke-width="15.325" stroke-miterlimit="4" stroke-dashoffset="0" stroke="#000000" fill-rule="evenodd" fill="#ae6af7" id="rect1061"/>
  </g>
 </g>
</svg>